<svg xmlns="http://www.w3.org/2000/svg" xmlns:xlink="http://www.w3.org/1999/xlink" xmlns:lucid="lucid" width="1882" height="1020"><g transform="translate(11 0)" lucid:page-tab-id="0_0"><path d="M0 0h1870.4v1323.2H0z" fill="#fff"/><path d="M726 66h74v114H600V40h120zm-126 0h126" stroke="#000" stroke-width="2" fill="#ffeca9"/><use xlink:href="#a" transform="matrix(1,0,0,1,612,74) translate(0 53.93333333333334)"/><use xlink:href="#b" transform="matrix(1,0,0,1,612,74) translate(62.899999999999984 53.93333333333334)"/><path d="M1026 66h74v114H900V40h120zm-126 0h126" stroke="#000" stroke-width="2" fill="#ffeca9"/><use xlink:href="#c" transform="matrix(1,0,0,1,912,74) translate(0 53.93333333333334)"/><use xlink:href="#d" transform="matrix(1,0,0,1,912,74) translate(97.77407407407406 53.93333333333334)"/><path d="M726 326h74v114H600V300h120zm-126 0h126" stroke="#000" stroke-width="2" fill="#ffeca9"/><use xlink:href="#e" transform="matrix(1,0,0,1,612,334) translate(0 53.93333333333334)"/><use xlink:href="#d" transform="matrix(1,0,0,1,612,334) translate(61.04814814814814 53.93333333333334)"/><path d="M1026 326h74v114H900V300h120zm-126 0h126" stroke="#000" stroke-width="2" fill="#ffeca9"/><use xlink:href="#f" transform="matrix(1,0,0,1,912,334) translate(0 53.93333333333334)"/><path d="M1446 326h74v114h-200V300h120zm-126 0h126" stroke="#000" stroke-width="2" fill="#ffeca9"/><use xlink:href="#g" transform="matrix(1,0,0,1,1332,334) translate(0 53.93333333333334)"/><use xlink:href="#d" transform="matrix(1,0,0,1,1332,334) translate(88.45555555555555 53.93333333333334)"/><path d="M426 326h74v114H300V300h120zm-126 0h126" stroke="#000" stroke-width="2" fill="#ffeca9"/><use xlink:href="#h" transform="matrix(1,0,0,1,312,334) translate(0 43.13333333333333)"/><use xlink:href="#i" transform="matrix(1,0,0,1,312,334) translate(0 67.4)"/><path d="M400 298V110h198" stroke="#000" stroke-width="2" fill="none"/><path d="M401 299h-2v-1.03h2zM599 111h-1.03v-2H599z"/><path d="M802 110h96" stroke="#000" stroke-width="2" fill="none"/><path d="M802.03 111H801v-2h1.03zM899 111h-1.03v-2H899z"/><path d="M700 298V182" stroke="#000" stroke-width="2" fill="none"/><path d="M701 299h-2v-1.03h2zM701 182.03h-2V181h2z"/><path d="M802 370h96" stroke="#000" stroke-width="2" fill="none"/><path d="M802.03 371H801v-2h1.03zM899 371h-1.03v-2H899z"/><path d="M1102 370h216" stroke="#000" stroke-width="2" fill="none"/><path d="M1102.03 371H1101v-2h1.03zM1319 371h-1.03v-2h1.03z"/><path d="M953.2 546h52v54h-140v-80h84zm-88 0h88" stroke="#000" stroke-width="2" fill="#ffeca9"/><use xlink:href="#j" transform="matrix(1,0,0,1,877.1999999999999,554) translate(0 23.044444444444444)"/><path d="M1108 546h52v54h-140v-80h84zm-88 0h88" stroke="#000" stroke-width="2" fill="#ffeca9"/><use xlink:href="#k" transform="matrix(1,0,0,1,1032,554) translate(0 23.044444444444444)"/><path d="M1050.7 442v76" stroke="#000" stroke-width="2" fill="none"/><path d="M1051.7 442.03h-2V441h2zM1051.7 519h-2v-1.03h2z"/><path d="M927.83 442v76" stroke="#000" stroke-width="2" fill="none"/><path d="M928.83 442.03h-2V441h2zM928.83 519h-2v-1.03h2z"/><path d="M1628 206h52v54h-140v-80h84zm-88 0h88" stroke="#000" stroke-width="2" fill="#ffeca9"/><use xlink:href="#l" transform="matrix(1,0,0,1,1552,214) translate(0 23.044444444444444)"/><path d="M1748 346h52v54h-140v-80h84zm-88 0h88" stroke="#000" stroke-width="2" fill="#ffeca9"/><use xlink:href="#m" transform="matrix(1,0,0,1,1672,354) translate(0 23.044444444444444)"/><path d="M1728 546h52v54h-140v-80h84zm-88 0h88" stroke="#000" stroke-width="2" fill="#ffeca9"/><use xlink:href="#n" transform="matrix(1,0,0,1,1652,554) translate(0 23.044444444444444)"/><path d="M1388 526h52v54h-140v-80h84zm-88 0h88" stroke="#000" stroke-width="2" fill="#ffeca9"/><use xlink:href="#o" transform="matrix(1,0,0,1,1312,534) translate(0 23.044444444444444)"/><path d="M1531.96 647.6h52v54h-140v-80h84zm-88 0h88" stroke="#000" stroke-width="2" fill="#ffeca9"/><use xlink:href="#p" transform="matrix(1,0,0,1,1455.9627251649724,655.5999999999999) translate(0 23.044444444444444)"/><path d="M1420 298v-78h118" stroke="#000" stroke-width="2" fill="none"/><path d="M1421 299h-2v-1.03h2zM1539 221h-1.03v-2h1.03z"/><path d="M1522 357.43h136" stroke="#000" stroke-width="2" fill="none"/><path d="M1522.03 358.43H1521v-2h1.03zM1659 358.43h-1.03v-2h1.03z"/><path d="M1341.5 442v56" stroke="#000" stroke-width="2" fill="none"/><path d="M1342.5 442.03h-2V441h2zM1342.5 499h-2v-1.03h2z"/><path d="M1470.7 619.6V442" stroke="#000" stroke-width="2" fill="none"/><path d="M1471.7 620.6h-2v-1.03h2zM1471.7 442.03h-2V441h2z"/><path d="M1638 541.38h-58V405.35h-58" stroke="#000" stroke-width="2" fill="none"/><path d="M1639 542.38h-1.03v-2h1.03zM1522.03 406.35H1521v-2h1.03z"/><path d="M366 727.6h74v114H240v-140h120zm-126 0h126" stroke="#000" stroke-width="2" fill="#ffeca9"/><use xlink:href="#q" transform="matrix(1,0,0,1,252,735.5999999999999) translate(0 53.93333333333334)"/><use xlink:href="#d" transform="matrix(1,0,0,1,252,735.5999999999999) translate(22.746296296296293 53.93333333333334)"/><path d="M1046 727.6h74v114H920v-140h120zm-126 0h126" stroke="#000" stroke-width="2" fill="#ffeca9"/><use xlink:href="#r" transform="matrix(1,0,0,1,932,735.5999999999999) translate(0 53.93333333333334)"/><use xlink:href="#d" transform="matrix(1,0,0,1,932,735.5999999999999) translate(22.746296296296293 53.93333333333334)"/><path d="M750.7 442v329.6H918" stroke="#000" stroke-width="2" fill="none"/><path d="M751.7 442.03h-2V441h2zM919 772.6h-1.03v-2H919z"/><path d="M649.3 442v329.6H442" stroke="#000" stroke-width="2" fill="none"/><path d="M650.3 442.03h-2V441h2zM442.03 772.6H441v-2h1.03z"/><path d="M181 926h59v74H80V900h96zm-101 0h101" stroke="#000" stroke-width="2" fill="#ffeca9"/><use xlink:href="#n" transform="matrix(1,0,0,1,92,934) translate(0 33.044444444444444)"/><path d="M238 806.95H127.48V898" stroke="#000" stroke-width="2" fill="none"/><path d="M239 807.95h-1.03v-2H239zM128.48 899h-2v-1.03h2z"/><path d="M361 926h59v74H260V900h96zm-101 0h101" stroke="#000" stroke-width="2" fill="#ffeca9"/><use xlink:href="#s" transform="matrix(1,0,0,1,272,934) translate(0 33.044444444444444)"/><path d="M541 926h59v74H440V900h96zm-101 0h101" stroke="#000" stroke-width="2" fill="#ffeca9"/><use xlink:href="#t" transform="matrix(1,0,0,1,452,934) translate(0 20.46666666666667)"/><use xlink:href="#u" transform="matrix(1,0,0,1,452,934) translate(0 43.844444444444434)"/><path d="M340 843.6V898" stroke="#000" stroke-width="2" fill="none"/><path d="M341 843.63h-2v-1.03h2zM341 899h-2v-1.03h2z"/><path d="M442 806.95h82.14V898" stroke="#000" stroke-width="2" fill="none"/><path d="M442.03 807.95H441v-2h1.03zM525.14 899h-2v-1.03h2z"/><path d="M861 926h59v74H760V900h96zm-101 0h101" stroke="#000" stroke-width="2" fill="#ffeca9"/><use xlink:href="#n" transform="matrix(1,0,0,1,772,934) translate(0 33.044444444444444)"/><path d="M1041 926h59v74H940V900h96zm-101 0h101" stroke="#000" stroke-width="2" fill="#ffeca9"/><use xlink:href="#s" transform="matrix(1,0,0,1,952,934) translate(0 33.044444444444444)"/><path d="M1221 926h59v74h-160V900h96zm-101 0h101" stroke="#000" stroke-width="2" fill="#ffeca9"/><use xlink:href="#t" transform="matrix(1,0,0,1,1132,934) translate(0 20.46666666666667)"/><use xlink:href="#u" transform="matrix(1,0,0,1,1132,934) translate(0 43.844444444444434)"/><path d="M918 806.95H803.42V898" stroke="#000" stroke-width="2" fill="none"/><path d="M919 807.95h-1.03v-2H919zM804.42 899h-2v-1.03h2z"/><path d="M1122 806.95h72.06V898" stroke="#000" stroke-width="2" fill="none"/><path d="M1122.03 807.95H1121v-2h1.03zM1195.06 899h-2v-1.03h2z"/><path d="M1020 898v-54.4" stroke="#000" stroke-width="2" fill="none"/><path d="M1021 899h-2v-1.03h2zM1021 843.63h-2v-1.03h2z"/><path d="M1 520h9.96m9.95 0h2m9.96 0h19.9m9.97 0h2m9.94 0H94.6m9.94 0h2m9.95 0h19.9m9.96 0h2m9.94 0h19.92m9.95 0h2m9.95 0h19.9m9.97 0h1.98m9.95 0h19.9m9.97 0h2m9.95 0h19.9m9.97 0h2m9.94 0h19.9m9.97 0h2m9.95 0h19.9m9.97 0h2m9.94 0h19.9m9.96 0h2m9.95 0h19.92m9.95 0h2m9.95 0h19.9m9.97 0h1.98m9.96 0H550v-4.55m0-9.95v-2m0-9.95v-19.9m0-9.97v-2m0-9.95v-19.9m0-9.96v-2m0-9.95v-19.9m0-9.97v-2m0-9.95v-19.9m0-9.96v-2m0-9.95v-19.92m0-9.96v-2m0-9.95v-19.9m0-9.96v-1.98m0-9.96V240h17.25m9.96 0h2m9.96 0h19.9m9.96 0h2m9.95 0h19.9m9.97 0h2m9.94 0h19.92m9.95 0h2m9.95 0h19.9m9.97 0h2m9.94 0h19.93m9.95 0h2m9.95 0h19.9m9.97 0h2m9.94 0h19.92m9.95 0h2m9.96 0h19.9m9.97 0h2m9.94 0h19.92m9.94 0h2m9.95 0h19.9m9.96 0h2m9.94 0h19.92m9.95 0h2m9.95 0h19.9m9.97 0h1.98m9.95 0h19.9m9.97 0h2m9.95 0h19.9m9.97 0h2m9.94 0h19.9m9.97 0h.57v-1.42m0-9.96v-19.9m0-9.97v-2m0-9.94v-19.9m0-9.96v-2m0-9.95v-19.92m4.87-5.08h2m9.95 0h19.9m9.97 0h1.98m9.96 0h19.9m9.96 0h2m9.95 0h19.9m9.97 0h2m9.95 0h19.9m9.96 0h2m9.95 0h19.9m9.97 0h2m9.95 0h19.9m9.96 0h2m9.95 0h19.92m9.96 0h2m9.95 0h19.9m9.96 0h1.98m9.96 0h19.9m9.97 0h2m9.96 0h19.9m9.96 0h2m9.95 0h19.9m9.97 0h2m9.94 0h19.92m9.95 0h2m9.95 0h19.9m9.97 0h2m9.94 0h19.93m9.95 0h2m9.95 0h19.9m9.97 0h2m9.94 0h9.96M1.03 520H0M1858.97 120h1.03" stroke="#000" stroke-width="2" fill="none"/><path d="M20 460h160v60H20z" stroke="#000" stroke-opacity="0" stroke-width="2" fill="#fff" fill-opacity="0"/><use xlink:href="#v" transform="matrix(1,0,0,1,25,465) translate(13.294216579861128 30.701171874999996)"/><use xlink:href="#w" transform="matrix(1,0,0,1,25,465) translate(74.13970269097223 30.701171874999996)"/><path d="M20 520h160v56.1H20z" stroke="#000" stroke-opacity="0" stroke-width="2" fill="#fff" fill-opacity="0"/><use xlink:href="#x" transform="matrix(1,0,0,1,25,525) translate(18.883409288194457 29.701171874999996)"/><use xlink:href="#w" transform="matrix(1,0,0,1,25,525) translate(68.55050998263889 29.701171874999996)"/><path d="M20 20h260v100.33H20z" stroke="#000" stroke-opacity="0" stroke-width="2" fill="#fff" fill-opacity="0"/><use xlink:href="#y" transform="matrix(1,0,0,1,25,25) translate(4.291232638888914 37.50195312499999)"/><use xlink:href="#z" transform="matrix(1,0,0,1,25,25) translate(72.80468750000001 37.50195312499999)"/><use xlink:href="#A" transform="matrix(1,0,0,1,25,25) translate(76.36539713541669 67.39485677083331)"/><path d="M34.74 84.53H83.8M34.77 84.53h-1.03M83.77 84.53h1.03M214.26 86.05h50.7M214.28 86.05h-1.02M264.94 86.05h1.02" stroke="#000" stroke-width="2" fill="none"/><path d="M1680 60h160v60h-160z" stroke="#000" stroke-opacity="0" stroke-width="2" fill="#fff" fill-opacity="0"/><g><use xlink:href="#v" transform="matrix(1,0,0,1,1685,64.99999999999999) translate(13.294216579861128 30.701171874999996)"/><use xlink:href="#w" transform="matrix(1,0,0,1,1685,64.99999999999999) translate(74.13970269097223 30.701171874999996)"/></g><path d="M1680 120h160v56.1h-160z" stroke="#000" stroke-opacity="0" stroke-width="2" fill="#fff" fill-opacity="0"/><g><use xlink:href="#x" transform="matrix(1,0,0,1,1685,125.00000000000004) translate(18.883409288194457 29.701171874999996)"/><use xlink:href="#w" transform="matrix(1,0,0,1,1685,125.00000000000004) translate(68.55050998263889 29.701171874999996)"/></g><defs><path d="M230 0l2-204L168 0h-37L68-204 70 0H24v-248h70l56 185 57-185h69V0h-46" id="B"/><path d="M133-34C117-15 103 5 69 4 32 3 11-16 11-54c-1-60 55-63 116-61 1-26-3-47-28-47-18 1-26 9-28 27l-52-2c7-38 36-58 82-57s74 22 75 68l1 82c-1 14 12 18 25 15v27c-30 8-71 5-69-32zm-48 3c29 0 43-24 42-57-32 0-66-3-65 30 0 17 8 27 23 27" id="C"/><path d="M25-224v-37h50v37H25zM25 0v-190h50V0H25" id="D"/><path d="M135-194c87-1 58 113 63 194h-50c-7-57 23-157-34-157-59 0-34 97-39 157H25l-1-190h47c2 12-1 28 3 38 12-26 28-41 61-42" id="E"/><g id="a"><use transform="matrix(0.0685185185185185,0,0,0.0685185185185185,0,0)" xlink:href="#B"/><use transform="matrix(0.0685185185185185,0,0,0.0685185185185185,20.487037037037034,0)" xlink:href="#C"/><use transform="matrix(0.0685185185185185,0,0,0.0685185185185185,34.190740740740736,0)" xlink:href="#D"/><use transform="matrix(0.0685185185185185,0,0,0.0685185185185185,41.042592592592584,0)" xlink:href="#E"/></g><path d="M240 0l2-218c-23 76-54 145-80 218h-23L58-218 59 0H30v-248h44l77 211c21-75 51-140 76-211h43V0h-30" id="F"/><path d="M100-194c62-1 85 37 85 99 1 63-27 99-86 99S16-35 15-95c0-66 28-99 85-99zM99-20c44 1 53-31 53-75 0-43-8-75-51-75s-53 32-53 75 10 74 51 75" id="G"/><path d="M85-194c31 0 48 13 60 33l-1-100h32l1 261h-30c-2-10 0-23-3-31C134-8 116 4 85 4 32 4 16-35 15-94c0-66 23-100 70-100zm9 24c-40 0-46 34-46 75 0 40 6 74 45 74 42 0 51-32 51-76 0-42-9-74-50-73" id="H"/><path d="M84 4C-5 8 30-112 23-190h32v120c0 31 7 50 39 49 72-2 45-101 50-169h31l1 190h-30c-1-10 1-25-2-33-11 22-28 36-60 37" id="I"/><path d="M24 0v-261h32V0H24" id="J"/><path d="M100-194c63 0 86 42 84 106H49c0 40 14 67 53 68 26 1 43-12 49-29l28 8c-11 28-37 45-77 45C44 4 14-33 15-96c1-61 26-98 85-98zm52 81c6-60-76-77-97-28-3 7-6 17-6 28h103" id="K"/><g id="b"><use transform="matrix(0.05,0,0,0.05,0,0)" xlink:href="#F"/><use transform="matrix(0.05,0,0,0.05,14.950000000000001,0)" xlink:href="#G"/><use transform="matrix(0.05,0,0,0.05,24.950000000000003,0)" xlink:href="#H"/><use transform="matrix(0.05,0,0,0.05,34.95,0)" xlink:href="#I"/><use transform="matrix(0.05,0,0,0.05,44.95,0)" xlink:href="#J"/><use transform="matrix(0.05,0,0,0.05,48.900000000000006,0)" xlink:href="#K"/></g><path d="M240-174c0 40-23 61-54 70L253 0h-59l-57-94H76V0H24v-248c93 4 217-23 216 74zM76-134c48-2 112 12 112-38 0-48-66-32-112-35v73" id="L"/><path d="M110-194c64 0 96 36 96 99 0 64-35 99-97 99-61 0-95-36-95-99 0-62 34-99 96-99zm-1 164c35 0 45-28 45-65 0-40-10-65-43-65-34 0-45 26-45 65 0 36 10 65 43 65" id="M"/><path d="M85 4C-2 5 27-109 22-190h50c7 57-23 150 33 157 60-5 35-97 40-157h50l1 190h-47c-2-12 1-28-3-38-12 25-28 42-61 42" id="N"/><path d="M115-3C79 11 28 4 28-45v-112H4v-33h27l15-45h31v45h36v33H77v99c-1 23 16 31 38 25v30" id="O"/><path d="M195-6C206 82 75 100 31 46c-4-6-6-13-8-21l49-6c3 16 16 24 34 25 40 0 42-37 40-79-11 22-30 35-61 35-53 0-70-43-70-97 0-56 18-96 73-97 30 0 46 14 59 34l2-30h47zm-90-29c32 0 41-27 41-63 0-35-9-62-40-62-32 0-39 29-40 63 0 36 9 62 39 62" id="P"/><g id="c"><use transform="matrix(0.0685185185185185,0,0,0.0685185185185185,0,0)" xlink:href="#L"/><use transform="matrix(0.0685185185185185,0,0,0.0685185185185185,17.746296296296293,0)" xlink:href="#M"/><use transform="matrix(0.0685185185185185,0,0,0.0685185185185185,32.751851851851846,0)" xlink:href="#N"/><use transform="matrix(0.0685185185185185,0,0,0.0685185185185185,47.7574074074074,0)" xlink:href="#O"/><use transform="matrix(0.0685185185185185,0,0,0.0685185185185185,55.91111111111109,0)" xlink:href="#D"/><use transform="matrix(0.0685185185185185,0,0,0.0685185185185185,62.762962962962945,0)" xlink:href="#E"/><use transform="matrix(0.0685185185185185,0,0,0.0685185185185185,77.7685185185185,0)" xlink:href="#P"/></g><g id="d"><use transform="matrix(0.05,0,0,0.05,0,0)" xlink:href="#F"/><use transform="matrix(0.05,0,0,0.05,14.950000000000001,0)" xlink:href="#G"/><use transform="matrix(0.05,0,0,0.05,24.950000000000003,0)" xlink:href="#H"/><use transform="matrix(0.05,0,0,0.05,34.95,0)" xlink:href="#I"/><use transform="matrix(0.05,0,0,0.05,44.95,0)" xlink:href="#J"/><use transform="matrix(0.05,0,0,0.05,48.900000000000006,0)" xlink:href="#K"/></g><path d="M67-125c0 53 21 87 73 88 37 1 54-22 65-47l45 17C233-25 199 4 140 4 58 4 20-42 15-125 8-235 124-281 211-232c18 10 29 29 36 50l-46 12c-8-25-30-41-62-41-52 0-71 34-72 86" id="Q"/><path d="M135-150c-39-12-60 13-60 57V0H25l-1-190h47c2 13-1 29 3 40 6-28 27-53 61-41v41" id="R"/><path d="M185-48c-13 30-37 53-82 52C43 2 14-33 14-96s30-98 90-98c62 0 83 45 84 108H66c0 31 8 55 39 56 18 0 30-7 34-22zm-45-69c5-46-57-63-70-21-2 6-4 13-4 21h74" id="S"/><g id="e"><use transform="matrix(0.0685185185185185,0,0,0.0685185185185185,0,0)" xlink:href="#Q"/><use transform="matrix(0.0685185185185185,0,0,0.0685185185185185,17.746296296296293,0)" xlink:href="#M"/><use transform="matrix(0.0685185185185185,0,0,0.0685185185185185,32.751851851851846,0)" xlink:href="#R"/><use transform="matrix(0.0685185185185185,0,0,0.0685185185185185,42.344444444444434,0)" xlink:href="#S"/></g><path d="M88-194c31-1 46 15 58 34l-1-101h50l1 261h-48c-2-10 0-23-3-31C134-8 116 4 84 4 32 4 16-41 15-95c0-56 19-97 73-99zm17 164c33 0 40-30 41-66 1-37-9-64-41-64s-38 30-39 65c0 43 13 65 39 65" id="T"/><path d="M25 0v-261h50V0H25" id="U"/><path d="M137-138c1-29-70-34-71-4 15 46 118 7 119 86 1 83-164 76-172 9l43-7c4 19 20 25 44 25 33 8 57-30 24-41C81-84 22-81 20-136c-2-80 154-74 161-7" id="V"/><g id="f"><use transform="matrix(0.0685185185185185,0,0,0.0685185185185185,0,0)" xlink:href="#B"/><use transform="matrix(0.0685185185185185,0,0,0.0685185185185185,20.487037037037034,0)" xlink:href="#M"/><use transform="matrix(0.0685185185185185,0,0,0.0685185185185185,35.49259259259259,0)" xlink:href="#T"/><use transform="matrix(0.0685185185185185,0,0,0.0685185185185185,50.49814814814814,0)" xlink:href="#S"/><use transform="matrix(0.0685185185185185,0,0,0.0685185185185185,64.20185185185184,0)" xlink:href="#U"/><use transform="matrix(0.0685185185185185,0,0,0.0685185185185185,71.05370370370369,0)" xlink:href="#V"/></g><path d="M169-182c-1-43-94-46-97-3 18 66 151 10 154 114 3 95-165 93-204 36-6-8-10-19-12-30l50-8c3 46 112 56 116 5-17-69-150-10-154-114-4-87 153-88 188-35 5 8 8 18 10 28" id="W"/><path d="M114-157C55-157 80-60 75 0H25v-261h50l-1 109c12-26 28-41 61-42 86-1 58 113 63 194h-50c-7-57 23-157-34-157" id="X"/><g id="g"><use transform="matrix(0.0685185185185185,0,0,0.0685185185185185,0,0)" xlink:href="#W"/><use transform="matrix(0.0685185185185185,0,0,0.0685185185185185,16.444444444444443,0)" xlink:href="#X"/><use transform="matrix(0.0685185185185185,0,0,0.0685185185185185,31.449999999999996,0)" xlink:href="#C"/><use transform="matrix(0.0685185185185185,0,0,0.0685185185185185,45.1537037037037,0)" xlink:href="#R"/><use transform="matrix(0.0685185185185185,0,0,0.0685185185185185,54.74629629629629,0)" xlink:href="#S"/><use transform="matrix(0.0685185185185185,0,0,0.0685185185185185,68.44999999999999,0)" xlink:href="#T"/></g><path d="M220-157c-53 9-28 100-34 157h-49v-107c1-27-5-49-29-50C55-147 81-57 75 0H25l-1-190h47c2 12-1 28 3 38 10-53 101-56 108 0 13-22 24-43 59-42 82 1 51 116 57 194h-49v-107c-1-25-5-48-29-50" id="Y"/><path d="M135-194c53 0 70 44 70 98 0 56-19 98-73 100-31 1-45-17-59-34 3 33 2 69 2 105H25l-1-265h48c2 10 0 23 3 31 11-24 29-35 60-35zM114-30c33 0 39-31 40-66 0-38-9-64-40-64-56 0-55 130 0 130" id="Z"/><g id="h"><use transform="matrix(0.0685185185185185,0,0,0.0685185185185185,0,0)" xlink:href="#W"/><use transform="matrix(0.0685185185185185,0,0,0.0685185185185185,16.444444444444443,0)" xlink:href="#D"/><use transform="matrix(0.0685185185185185,0,0,0.0685185185185185,23.29629629629629,0)" xlink:href="#Y"/><use transform="matrix(0.0685185185185185,0,0,0.0685185185185185,45.222222222222214,0)" xlink:href="#Z"/><use transform="matrix(0.0685185185185185,0,0,0.0685185185185185,60.22777777777777,0)" xlink:href="#U"/><use transform="matrix(0.0685185185185185,0,0,0.0685185185185185,67.07962962962962,0)" xlink:href="#S"/></g><path d="M212-179c-10-28-35-45-73-45-59 0-87 40-87 99 0 60 29 101 89 101 43 0 62-24 78-52l27 14C228-24 195 4 139 4 59 4 22-46 18-125c-6-104 99-153 187-111 19 9 31 26 39 46" id="aa"/><path d="M210-169c-67 3-38 105-44 169h-31v-121c0-29-5-50-35-48C34-165 62-65 56 0H25l-1-190h30c1 10-1 24 2 32 10-44 99-50 107 0 11-21 27-35 58-36 85-2 47 119 55 194h-31v-121c0-29-5-49-35-48" id="ab"/><path d="M115-194c55 1 70 41 70 98S169 2 115 4C84 4 66-9 55-30l1 105H24l-1-265h31l2 30c10-21 28-34 59-34zm-8 174c40 0 45-34 45-75s-6-73-45-74c-42 0-51 32-51 76 0 43 10 73 51 73" id="ac"/><path d="M117-194c89-4 53 116 60 194h-32v-121c0-31-8-49-39-48C34-167 62-67 57 0H25l-1-190h30c1 10-1 24 2 32 11-22 29-35 61-36" id="ad"/><path d="M59-47c-2 24 18 29 38 22v24C64 9 27 4 27-40v-127H5v-23h24l9-43h21v43h35v23H59v120" id="ae"/><path d="M135-143c-3-34-86-38-87 0 15 53 115 12 119 90S17 21 10-45l28-5c4 36 97 45 98 0-10-56-113-15-118-90-4-57 82-63 122-42 12 7 21 19 24 35" id="af"/><g id="i"><use transform="matrix(0.05,0,0,0.05,0,0)" xlink:href="#aa"/><use transform="matrix(0.05,0,0,0.05,12.950000000000001,0)" xlink:href="#G"/><use transform="matrix(0.05,0,0,0.05,22.950000000000003,0)" xlink:href="#ab"/><use transform="matrix(0.05,0,0,0.05,37.900000000000006,0)" xlink:href="#ac"/><use transform="matrix(0.05,0,0,0.05,47.900000000000006,0)" xlink:href="#G"/><use transform="matrix(0.05,0,0,0.05,57.900000000000006,0)" xlink:href="#ad"/><use transform="matrix(0.05,0,0,0.05,67.9,0)" xlink:href="#K"/><use transform="matrix(0.05,0,0,0.05,77.9,0)" xlink:href="#ad"/><use transform="matrix(0.05,0,0,0.05,87.9,0)" xlink:href="#ae"/><use transform="matrix(0.05,0,0,0.05,92.9,0)" xlink:href="#af"/></g><g id="j"><use transform="matrix(0.05617283950617281,0,0,0.05617283950617281,0,0)" xlink:href="#Q"/><use transform="matrix(0.05617283950617281,0,0,0.05617283950617281,14.548765432098756,0)" xlink:href="#U"/><use transform="matrix(0.05617283950617281,0,0,0.05617283950617281,20.166049382716036,0)" xlink:href="#C"/><use transform="matrix(0.05617283950617281,0,0,0.05617283950617281,31.40061728395059,0)" xlink:href="#V"/><use transform="matrix(0.05617283950617281,0,0,0.05617283950617281,42.63518518518516,0)" xlink:href="#V"/><use transform="matrix(0.05617283950617281,0,0,0.05617283950617281,53.86975308641972,0)" xlink:href="#S"/><use transform="matrix(0.05617283950617281,0,0,0.05617283950617281,65.10432098765428,0)" xlink:href="#V"/></g><path d="M24 0v-248h52V0H24" id="ag"/><path d="M121-226c-27-7-43 5-38 36h38v33H83V0H34v-157H6v-33h28c-9-59 32-81 87-68v32" id="ah"/><path d="M190-63c-7 42-38 67-86 67-59 0-84-38-90-98-12-110 154-137 174-36l-49 2c-2-19-15-32-35-32-30 0-35 28-38 64-6 74 65 87 74 30" id="ai"/><g id="k"><use transform="matrix(0.05617283950617281,0,0,0.05617283950617281,0,0)" xlink:href="#ag"/><use transform="matrix(0.05617283950617281,0,0,0.05617283950617281,5.6172839506172805,0)" xlink:href="#E"/><use transform="matrix(0.05617283950617281,0,0,0.05617283950617281,17.919135802469125,0)" xlink:href="#O"/><use transform="matrix(0.05617283950617281,0,0,0.05617283950617281,24.603703703703687,0)" xlink:href="#S"/><use transform="matrix(0.05617283950617281,0,0,0.05617283950617281,35.83827160493825,0)" xlink:href="#R"/><use transform="matrix(0.05617283950617281,0,0,0.05617283950617281,43.702469135802446,0)" xlink:href="#ah"/><use transform="matrix(0.05617283950617281,0,0,0.05617283950617281,50.38703703703701,0)" xlink:href="#C"/><use transform="matrix(0.05617283950617281,0,0,0.05617283950617281,61.62160493827157,0)" xlink:href="#ai"/><use transform="matrix(0.05617283950617281,0,0,0.05617283950617281,72.85617283950613,0)" xlink:href="#S"/><use transform="matrix(0.05617283950617281,0,0,0.05617283950617281,84.09074074074069,0)" xlink:href="#V"/></g><path d="M67-125c0 54 23 88 75 88 28 0 53-7 68-21v-34h-60v-39h108v91C232-14 192 4 140 4 58 4 20-42 15-125 8-236 126-280 215-234c19 10 29 26 37 47l-47 15c-11-23-29-39-63-39-53 1-75 33-75 86" id="aj"/><g id="l"><use transform="matrix(0.05617283950617281,0,0,0.05617283950617281,0,0)" xlink:href="#aj"/><use transform="matrix(0.05617283950617281,0,0,0.05617283950617281,15.728395061728387,0)" xlink:href="#N"/><use transform="matrix(0.05617283950617281,0,0,0.05617283950617281,28.030246913580232,0)" xlink:href="#C"/><use transform="matrix(0.05617283950617281,0,0,0.05617283950617281,39.26481481481479,0)" xlink:href="#R"/><use transform="matrix(0.05617283950617281,0,0,0.05617283950617281,47.12901234567899,0)" xlink:href="#T"/><use transform="matrix(0.05617283950617281,0,0,0.05617283950617281,59.43086419753083,0)" xlink:href="#V"/></g><path d="M24-248c93 1 206-16 204 79-1 75-69 88-152 82V0H24v-248zm52 121c47 0 100 7 100-41 0-47-54-39-100-39v80" id="ak"/><g id="m"><use transform="matrix(0.05617283950617281,0,0,0.05617283950617281,0,0)" xlink:href="#ak"/><use transform="matrix(0.05617283950617281,0,0,0.05617283950617281,13.481481481481474,0)" xlink:href="#D"/><use transform="matrix(0.05617283950617281,0,0,0.05617283950617281,19.098765432098755,0)" xlink:href="#Z"/><use transform="matrix(0.05617283950617281,0,0,0.05617283950617281,31.4006172839506,0)" xlink:href="#S"/><use transform="matrix(0.05617283950617281,0,0,0.05617283950617281,42.635185185185165,0)" xlink:href="#V"/></g><path d="M128 0H69L1-190h53L99-40l48-150h52" id="al"/><g id="n"><use transform="matrix(0.05617283950617281,0,0,0.05617283950617281,0,0)" xlink:href="#W"/><use transform="matrix(0.05617283950617281,0,0,0.05617283950617281,13.481481481481474,0)" xlink:href="#S"/><use transform="matrix(0.05617283950617281,0,0,0.05617283950617281,24.716049382716037,0)" xlink:href="#R"/><use transform="matrix(0.05617283950617281,0,0,0.05617283950617281,32.58024691358023,0)" xlink:href="#al"/><use transform="matrix(0.05617283950617281,0,0,0.05617283950617281,43.814814814814795,0)" xlink:href="#D"/><use transform="matrix(0.05617283950617281,0,0,0.05617283950617281,49.43209876543207,0)" xlink:href="#ai"/><use transform="matrix(0.05617283950617281,0,0,0.05617283950617281,60.66666666666663,0)" xlink:href="#S"/><use transform="matrix(0.05617283950617281,0,0,0.05617283950617281,71.9012345679012,0)" xlink:href="#V"/></g><g id="o"><use transform="matrix(0.05617283950617281,0,0,0.05617283950617281,0,0)" xlink:href="#W"/><use transform="matrix(0.05617283950617281,0,0,0.05617283950617281,13.481481481481474,0)" xlink:href="#O"/><use transform="matrix(0.05617283950617281,0,0,0.05617283950617281,20.16604938271604,0)" xlink:href="#R"/><use transform="matrix(0.05617283950617281,0,0,0.05617283950617281,28.030246913580232,0)" xlink:href="#N"/><use transform="matrix(0.05617283950617281,0,0,0.05617283950617281,40.33209876543208,0)" xlink:href="#ai"/><use transform="matrix(0.05617283950617281,0,0,0.05617283950617281,51.56666666666664,0)" xlink:href="#O"/><use transform="matrix(0.05617283950617281,0,0,0.05617283950617281,58.2512345679012,0)" xlink:href="#N"/><use transform="matrix(0.05617283950617281,0,0,0.05617283950617281,70.55308641975306,0)" xlink:href="#R"/><use transform="matrix(0.05617283950617281,0,0,0.05617283950617281,78.41728395061725,0)" xlink:href="#S"/></g><path d="M76-208v77h127v40H76V0H24v-248h183v40H76" id="am"/><g id="p"><use transform="matrix(0.05617283950617281,0,0,0.05617283950617281,0,0)" xlink:href="#am"/><use transform="matrix(0.05617283950617281,0,0,0.05617283950617281,12.301851851851845,0)" xlink:href="#M"/><use transform="matrix(0.05617283950617281,0,0,0.05617283950617281,24.60370370370369,0)" xlink:href="#R"/><use transform="matrix(0.05617283950617281,0,0,0.05617283950617281,32.46790123456788,0)" xlink:href="#Y"/><use transform="matrix(0.05617283950617281,0,0,0.05617283950617281,50.44320987654318,0)" xlink:href="#V"/></g><path d="M199 0l-22-63H83L61 0H9l90-248h61L250 0h-51zm-33-102l-36-108c-10 38-24 72-36 108h72" id="an"/><use transform="matrix(0.0685185185185185,0,0,0.0685185185185185,0,0)" xlink:href="#an" id="q"/><path d="M182-130c37 4 62 22 62 59C244 23 116-4 24 0v-248c84 5 203-23 205 63 0 31-19 50-47 55zM76-148c40-3 101 13 101-30 0-44-60-28-101-31v61zm0 110c48-3 116 14 116-37 0-48-69-32-116-35v72" id="ao"/><use transform="matrix(0.0685185185185185,0,0,0.0685185185185185,0,0)" xlink:href="#ao" id="r"/><g id="s"><use transform="matrix(0.05617283950617281,0,0,0.05617283950617281,0,0)" xlink:href="#Q"/><use transform="matrix(0.05617283950617281,0,0,0.05617283950617281,14.548765432098756,0)" xlink:href="#M"/><use transform="matrix(0.05617283950617281,0,0,0.05617283950617281,26.8506172839506,0)" xlink:href="#Y"/><use transform="matrix(0.05617283950617281,0,0,0.05617283950617281,44.8259259259259,0)" xlink:href="#Z"/><use transform="matrix(0.05617283950617281,0,0,0.05617283950617281,57.127777777777744,0)" xlink:href="#M"/><use transform="matrix(0.05617283950617281,0,0,0.05617283950617281,69.42962962962959,0)" xlink:href="#E"/><use transform="matrix(0.05617283950617281,0,0,0.05617283950617281,81.73148148148144,0)" xlink:href="#S"/><use transform="matrix(0.05617283950617281,0,0,0.05617283950617281,92.966049382716,0)" xlink:href="#E"/><use transform="matrix(0.05617283950617281,0,0,0.05617283950617281,105.26790123456784,0)" xlink:href="#O"/><use transform="matrix(0.05617283950617281,0,0,0.05617283950617281,111.9524691358024,0)" xlink:href="#V"/></g><path d="M185-189c-5-48-123-54-124 2 14 75 158 14 163 119 3 78-121 87-175 55-17-10-28-26-33-46l33-7c5 56 141 63 141-1 0-78-155-14-162-118-5-82 145-84 179-34 5 7 8 16 11 25" id="ap"/><path d="M96-169c-40 0-48 33-48 73s9 75 48 75c24 0 41-14 43-38l32 2c-6 37-31 61-74 61-59 0-76-41-82-99-10-93 101-131 147-64 4 7 5 14 7 22l-32 3c-4-21-16-35-41-35" id="aq"/><path d="M24-231v-30h32v30H24zM24 0v-190h32V0H24" id="ar"/><path d="M101-234c-31-9-42 10-38 44h38v23H63V0H32v-167H5v-23h27c-7-52 17-82 69-68v24" id="as"/><g id="t"><use transform="matrix(0.04999999999999997,0,0,0.04999999999999997,0,0)" xlink:href="#ap"/><use transform="matrix(0.04999999999999997,0,0,0.04999999999999997,11.999999999999993,0)" xlink:href="#ac"/><use transform="matrix(0.04999999999999997,0,0,0.04999999999999997,21.999999999999986,0)" xlink:href="#K"/><use transform="matrix(0.04999999999999997,0,0,0.04999999999999997,31.99999999999998,0)" xlink:href="#aq"/><use transform="matrix(0.04999999999999997,0,0,0.04999999999999997,40.99999999999997,0)" xlink:href="#ar"/><use transform="matrix(0.04999999999999997,0,0,0.04999999999999997,44.94999999999997,0)" xlink:href="#as"/><use transform="matrix(0.04999999999999997,0,0,0.04999999999999997,49.94999999999996,0)" xlink:href="#ar"/><use transform="matrix(0.04999999999999997,0,0,0.04999999999999997,53.899999999999956,0)" xlink:href="#aq"/></g><g id="u"><use transform="matrix(0.05617283950617281,0,0,0.05617283950617281,0,0)" xlink:href="#aj"/><use transform="matrix(0.05617283950617281,0,0,0.05617283950617281,15.728395061728387,0)" xlink:href="#N"/><use transform="matrix(0.05617283950617281,0,0,0.05617283950617281,28.030246913580232,0)" xlink:href="#C"/><use transform="matrix(0.05617283950617281,0,0,0.05617283950617281,39.26481481481479,0)" xlink:href="#R"/><use transform="matrix(0.05617283950617281,0,0,0.05617283950617281,47.12901234567899,0)" xlink:href="#T"/><use transform="matrix(0.05617283950617281,0,0,0.05617283950617281,59.43086419753083,0)" xlink:href="#V"/></g><path d="M68-128c-2-220 18-952 16-1172 0-66 220-99 660-99 121 0 181 35 181 102 0 48-38 89-87 89-93 0-404-8-497-7-53 0-78 28-75 83s4 164 4 328c136 1 292-1 430-3 51-1 92 37 92 88 0 70-59 105-176 105-132 1-183-2-350-2v466c169-7 342-10 519-10 90 0 135 32 135 97 0 63-41 94-123 94-104 0-454 4-558 3C115 33 69-3 68-128" id="at"/><path d="M1038-61c0 51-47 95-98 95-39 0-74-22-87-70-30-110-41-211-85-368-87-4-361 32-440 32-32 85-78 214-139 386C127 42 27 50 27-26c0-19 22-92 63-220 65-201 235-650 343-966 11-31 24-76 48-131 35-47 42-54 115-56 27 0 50 13 68 40 56 83 93 247 128 364 76 256 142 483 193 681 35 137 53 221 53 253zM717-597c-42-151-89-306-142-463-23 64-81 226-176 487 71-7 177-15 318-24" id="au"/><path d="M884-797c168-4 137 217 137 391 0 141-3 370-24 421-22 54-53 82-103 82-57 0-96-45-90-104-59 27-125 41-196 41C254 34 44-316 44-691c0-173 41-329 123-466 97-161 226-242 388-242 148 0 278 77 389 232-29 75-63 112-103 112-5 0-41-25-108-75s-123-75-170-75c-202 0-319 288-319 510 0 265 122 526 367 526 98 0 167-45 206-136v-299c-123 3-250 30-356-12-34-64-53-145 25-164 92 0 298-15 398-17" id="av"/><path d="M55-1294c-14-53 255-105 315-105 180 0 329 25 446 75 163 70 244 183 244 338S940-702 700-601c50 84 169 271 237 374 55 83 80 139 80 166 0 50-49 95-99 93-102-5-209-244-266-337-31-51-76-127-137-229-67 18-133 27-199 27v394c0 98-33 147-98 147-48 0-88-38-88-87 3-451 6-580 5-1131h5c-57-40-85-77-85-110zm812 302c0-86-64-148-193-186-93-27-223-39-355-34-2 104-3 274-3 511 109-9 219-35 329-79 148-59 222-130 222-212" id="aw"/><g id="v"><use transform="matrix(0.010959201388888886,0,0,0.010959201388888886,0,0)" xlink:href="#at"/><use transform="matrix(0.010959201388888886,0,0,0.010959201388888886,10.608506944444443,0)" xlink:href="#au"/><use transform="matrix(0.010959201388888886,0,0,0.010959201388888886,21.67730034722222,0)" xlink:href="#av"/><use transform="matrix(0.010959201388888886,0,0,0.010959201388888886,33.48036024305555,0)" xlink:href="#at"/><use transform="matrix(0.010959201388888886,0,0,0.010959201388888886,44.08886718749999,0)" xlink:href="#aw"/></g><path d="M191-1237c0 287 13 826 7 1118 119 4 493-9 539-9 69 0 103 22 103 65 0 37-27 56-81 56-163-2-516 26-633-8-32-9-46-100-46-258 0-188-19-816-17-1004 0-59 21-88 63-88 43 0 65 43 65 128" id="ax"/><path d="M521 0C214 0 48-269 48-592c0-181 36-346 107-493 90-187 215-280 376-280 155 0 276 83 363 249 71 134 106 286 106 457C1000-328 829 0 521 0zm25-123c210 0 329-301 324-532-6-281-93-552-326-586-283 24-374 316-378 639-4 282 116 479 380 479" id="ay"/><path d="M756-439c-104-7-387 36-490 33-33 87-80 219-141 394C95 1 27 13 24-26c24-155 316-923 404-1175 11-31 37-139 81-159 8-3 24-5 49-5 16 0 29 8 39 25 55 83 91 240 125 355 35 118 243 835 244 924 1 32-31 62-63 61-23 0-43-13-51-41-37-129-36-182-96-398zm-32-124c-55-196-117-397-186-603-56 161-131 371-226 630 62-1 333-30 412-27" id="az"/><path d="M370-1365c349 0 611 335 611 693C981-313 691 0 335 0 242 0 44-36 49-109c4-60 73-80 128-48-2-119-3-467-3-1044-34 12-84 10-78-33 49-107 110-131 274-131zM282-137c427 45 695-414 512-814-87-190-242-309-516-293 3 245 4 614 4 1107" id="aA"/><path d="M65-128c-2-220 17-952 15-1172 0-43 204-65 611-65 51 0 88 4 109 10 35 9 53 29 53 58 0 37-18 55-53 55-154-1-470-7-612-9 7 124 10 284 10 481 150 1 312-1 464-3 39 0 58 18 58 54-2 101-163 70-275 70-44 0-127-1-250-1v536c183-8 367-12 553-12 67 0 100 21 100 63 0 40-30 60-90 60-103 0-453 5-557 3C94-2 66-20 65-128" id="aB"/><g id="w"><use transform="matrix(0.010959201388888886,0,0,0.010959201388888886,0,0)" xlink:href="#ax"/><use transform="matrix(0.010959201388888886,0,0,0.010959201388888886,9.205729166666664,0)" xlink:href="#ay"/><use transform="matrix(0.010959201388888886,0,0,0.010959201388888886,19.704644097222218,0)" xlink:href="#az"/><use transform="matrix(0.010959201388888886,0,0,0.010959201388888886,30.663845486111104,0)" xlink:href="#aA"/><use transform="matrix(0.010959201388888886,0,0,0.010959201388888886,41.86414930555554,0)" xlink:href="#aB"/><use transform="matrix(0.010959201388888886,0,0,0.010959201388888886,51.36577690972221,0)" xlink:href="#aA"/></g><path d="M271-154c141 3 362-7 506-8 91 0 136 33 136 99 0 60-38 90-114 90-169 0-530 29-647-12-46-16-67-116-67-288 0-188-19-816-17-1004 0-81 33-122 98-122 66 0 99 54 99 162 0 269 12 805 6 1083" id="aC"/><path d="M915-1399c51 0 92 39 92 90 0 45-41 144-123 295-145 267-336 556-573 866 252-5 453-7 604-7 48 0 93 40 90 88-6 91-76 98-196 98-209 0-451 2-666 0-61 0-92-29-92-86 0-26 34-87 101-182 284-405 421-598 618-964-36 3-476-5-620 10-84-114-83-213 116-207 168 5 468-1 649-1" id="aD"/><path d="M891-1384c62-43 147 13 147 80 0 40-62 149-188 326-19 26-101 137-246 333 5 246 20 426-2 635-105 80-187 59-182-132 4-165 3-331 3-498-134-182-266-399-397-650 65-131 116-145 196-19 25 39 121 189 290 447 56-68 139-171 239-316 39-56 94-174 140-206" id="aE"/><g id="x"><use transform="matrix(0.010959201388888886,0,0,0.010959201388888886,0,0)" xlink:href="#aC"/><use transform="matrix(0.010959201388888886,0,0,0.010959201388888886,10.03862847222222,0)" xlink:href="#au"/><use transform="matrix(0.010959201388888886,0,0,0.010959201388888886,21.81976996527777,0)" xlink:href="#aD"/><use transform="matrix(0.010959201388888886,0,0,0.010959201388888886,33.43652343749999,0)" xlink:href="#aE"/></g><path d="M802-696c140 50 287 161 289 324 4 389-648 445-983 299-10-37-2-105 27-98 23 0 62 9 118 28 5-228 18-440 6-674-10-192-29-332-29-422-41 2-81 5-121 8-42-18-63-38-63-61 0-49 58-73 174-73 191 0 355 27 492 80 191 74 286 191 286 350 0 109-65 189-196 239zM365-126c255 31 592-28 596-243 2-136-240-241-389-257-35-4-87-8-152-26-32-9-46-31-46-56-1-33 24-67 58-67 17 0 75 5 92 5 137 0 348-61 348-179 0-185-302-292-524-283 1 67 2 211 2 432 0 281 38 446 15 674" id="aF"/><path d="M423-1244c-130-3-288 151-189 283 45 59 120 123 235 184 144 76 234 127 267 154 84 69 126 156 126 261C862-158 697 3 493 0 263-4 80-145 39-341c-7-33 36-64 69-62 47 3 61 61 85 108 42 83 178 162 300 162 142 0 239-94 237-236 0-39-12-75-36-109s-86-77-185-130c-128-68-220-125-277-172-105-85-157-174-157-266 0-167 173-319 338-319 164 0 322 115 355 251-26 31-50 47-73 47-8 0-24-15-45-46-53-79-112-128-227-131" id="aG"/><path d="M79-1355c67 0 222-10 293-10 37 0 55 16 55 49s-21 55-63 65c-14 3-48 6-103 9 14 285 12 690 14 1123 53 1 86 2 99 5 35 9 53 29 53 61 0 35-88 53-263 53-29 0-53-1-74-3-46-72-52-116 79-113-9-188-5-826-17-1123-34-1-68-5-101-12-19-43-36-104 28-104" id="aH"/><path d="M171-567c0 248 122 446 356 446 138 0 226-58 265-174 35-12 111-21 102 27C861-98 723 0 526 0 214 0 43-251 43-579c0-181 44-349 131-506 103-187 238-280 405-280 109 0 273 126 273 232 0 44-21 66-64 66-42 11-105-129-112-126-26-29-60-44-101-44-126 0-228 84-307 251-65 137-97 277-97 419" id="aI"/><g id="y"><use transform="matrix(0.014214409722222219,0,0,0.014214409722222219,0,0)" xlink:href="#aF"/><use transform="matrix(0.014214409722222219,0,0,0.014214409722222219,15.678493923611104,0)" xlink:href="#az"/><use transform="matrix(0.014214409722222219,0,0,0.014214409722222219,29.892903645833318,0)" xlink:href="#aG"/><use transform="matrix(0.014214409722222219,0,0,0.014214409722222219,42.6716579861111,0)" xlink:href="#aH"/><use transform="matrix(0.014214409722222219,0,0,0.014214409722222219,49.22450086805554,0)" xlink:href="#aI"/></g><path d="M242-567c0 228 105 412 323 412 121 0 200-56 237-168 65-27 164-31 164 55 0 17-9 46-27 85C873-38 748 34 563 34 230 34 46-235 46-579c0-191 46-368 140-532 110-192 254-288 430-288 141 0 249 78 304 240 22 65-30 128-94 126-35 0-69-28-102-85s-70-85-111-85c-115 0-209 81-282 242-59 131-89 262-89 394" id="aJ"/><path d="M256-800c144 11 449-26 601-24-2-186-9-360 10-529 79-63 176-79 176 66 0 224-6 970-5 1193 0 85-31 128-94 128-25 0-47-9-65-26s-27-227-27-631c-320 13-399 22-593 14 1 150-2 388-3 513 0 87-32 130-96 130-50 0-90-39-90-89v-1290c52-32 94-48 125-48 41 0 61 22 61 65v528" id="aK"/><path d="M128-1389c67 0 222-10 294-10 59 0 88 28 88 83 0 66-54 99-162 99 10 274 9 651 10 1063 101 1 152 35 152 101 0 58-99 87-297 87-31 0-61-2-92-5-62-80-79-175 62-174-7-143-4-807-16-1062-24-2-54-7-90-15-39-74-50-167 51-167" id="aL"/><path d="M1065-1299c0 51-41 91-92 91H608c-1 409 0 793 6 1198-45 29-84 44-116 44-60 0-68-75-66-153 9-373-11-549-9-1089-157 5-205 5-353-9-31-41-46-76-46-106 0-52 294-78 882-78 106 0 159 35 159 102" id="aM"/><path d="M794-1306c0-54 38-93 92-93 49 0 82 27 99 83 17 57 17 201 17 287C1002-322 828 32 480 32 200 32 60-211 60-698c0-115 34-587 36-647 42-31 79-46 112-46 39 0 58 22 58 65 2 121-17 521-17 642 0 348 75 522 225 522 217 0 326-263 326-789 1-67-6-288-6-355" id="aN"/><g id="z"><use transform="matrix(0.014214409722222219,0,0,0.014214409722222219,0,0)" xlink:href="#au"/><use transform="matrix(0.014214409722222219,0,0,0.014214409722222219,15.280490451388886,0)" xlink:href="#aw"/><use transform="matrix(0.014214409722222219,0,0,0.014214409722222219,31.07269965277777,0)" xlink:href="#aJ"/><use transform="matrix(0.014214409722222219,0,0,0.014214409722222219,45.4861111111111,0)" xlink:href="#aK"/><use transform="matrix(0.014214409722222219,0,0,0.014214409722222219,61.32096354166665,0)" xlink:href="#aL"/><use transform="matrix(0.014214409722222219,0,0,0.014214409722222219,69.32367621527776,0)" xlink:href="#aM"/><use transform="matrix(0.014214409722222219,0,0,0.014214409722222219,84.74631076388886,0)" xlink:href="#at"/><use transform="matrix(0.014214409722222219,0,0,0.014214409722222219,98.50585937499997,0)" xlink:href="#aJ"/><use transform="matrix(0.014214409722222219,0,0,0.014214409722222219,112.9192708333333,0)" xlink:href="#aM"/><use transform="matrix(0.014214409722222219,0,0,0.014214409722222219,128.3419053819444,0)" xlink:href="#aN"/><use transform="matrix(0.014214409722222219,0,0,0.014214409722222219,143.35232204861106,0)" xlink:href="#aw"/><use transform="matrix(0.014214409722222219,0,0,0.014214409722222219,159.14453124999994,0)" xlink:href="#at"/></g><path d="M811-1326c-1-19 50-39 73-39 14 0 24 10 29 29 14 47 21 150 21 310v970c11 53-100 77-134 29-36-51-74-140-105-205-163-340-334-646-509-917 1 73 2 384 2 931 0 21 6 88 5 109 0 73-21 109-63 109-38 0-57-265-57-794 0-83-8-352-8-435 0-73 9-113 24-124 8-6 80-11 87 6 61 58 134 157 215 297 101 174 313 571 428 803 2-358 2-721-8-1079" id="aO"/><path d="M546-749c93 0 309-40 370 7 54 87 31 326 31 469 0 145-7 237-21 277s-36 59-69 59c-67 0-60-67-53-130C739-22 661 0 570 0 235 0 41-335 41-691c0-163 38-310 114-441 91-156 212-233 362-233 137 0 253 68 350 203-18 49-39 73-63 73 5 0-27-25-96-75s-130-75-182-75c-223 0-354 300-354 544 0 286 138 567 401 560 135-3 166-47 229-141 8-13 12-23 12-31v-331c-118-4-266 33-367-7-21-46-40-101 29-106-9 1 15 2 70 2" id="aP"/><path d="M788-951c1-67-7-288-6-355 0-39 19-59 58-59 31 0 52 20 66 59 10 29 16 121 16 277C922-344 759-2 433-2 176-2 48-234 48-698c0-117 32-562 36-628 28-21 54-31 78-31 16 0 24 10 24 31 2 109-17 477-17 585 0 409 86 613 259 613 240 0 360-274 360-823" id="aQ"/><path d="M49-1294c0-47 215-71 282-71 169 0 309 23 420 68 157 64 235 168 235 311 0 147-125 269-375 368 50 86 179 292 254 403 55 81 79 133 79 154 1 31-33 61-65 59-82-7-187-236-237-321-33-56-84-139-149-252-90 27-174 41-251 41v421c0 75-21 113-63 113-36 0-54-18-54-53 2-462 6-601 5-1174l-22 7c-39-27-59-52-59-74zm813 302c0-94-68-163-205-208-117-39-263-58-411-42-3 92-4 284-4 576 111-1 234-30 371-87 166-69 249-148 249-239" id="aR"/><g id="A"><use transform="matrix(0.014214409722222219,0,0,0.014214409722222219,0,0)" xlink:href="#az"/><use transform="matrix(0.014214409722222219,0,0,0.014214409722222219,14.214409722222218,0)" xlink:href="#aO"/><use transform="matrix(0.014214409722222219,0,0,0.014214409722222219,28.428819444444436,0)" xlink:href="#aP"/><use transform="matrix(0.014214409722222219,0,0,0.014214409722222219,42.6716579861111,0)" xlink:href="#aQ"/><use transform="matrix(0.014214409722222219,0,0,0.014214409722222219,56.43120659722221,0)" xlink:href="#ax"/><use transform="matrix(0.014214409722222219,0,0,0.014214409722222219,68.37131076388887,0)" xlink:href="#az"/><use transform="matrix(0.014214409722222219,0,0,0.014214409722222219,82.58572048611109,0)" xlink:href="#aR"/></g></defs></g></svg>